<svg xmlns="http://www.w3.org/2000/svg" width="14" height="16" viewBox="0 0 14 16">
  <defs>
    <style>
      .cls-1 {
        fill: #242a32;
        fill-rule: evenodd;
      }
    </style>
  </defs>
  <path id="logout" class="cls-1" d="M5731.64,214.092a0.647,0.647,0,0,0-.96,0,0.775,0.775,0,0,0,0,1.028l2.01,2.153h-8.3a0.729,0.729,0,0,0,0,1.454h8.3l-2.01,2.153a0.775,0.775,0,0,0,0,1.028,0.647,0.647,0,0,0,.96,0l3.16-3.394a0.754,0.754,0,0,0,0-1.028ZM5727.55,226a0.729,0.729,0,0,0,0-1.454h-5.2V211.454h5.2a0.729,0.729,0,0,0,0-1.454h-5.87a0.7,0.7,0,0,0-.68.727v14.546a0.7,0.7,0,0,0,.68.727h5.87Z" transform="translate(-5721 -210)"/>
</svg>
