<svg xmlns="http://www.w3.org/2000/svg" width="21" height="20" viewBox="0 0 21 20">
  <defs>
    <style>
      .cls-1 {
        fill: #242a32;
        fill-rule: evenodd;
      }
    </style>
  </defs>
  <path id="preferences" class="cls-1" d="M5736.56,134.356l-5.12-.368a0.274,0.274,0,0,1-.24-0.176l-1.95-4.75a1.72,1.72,0,0,0-3.18,0l-1.95,4.756a0.307,0.307,0,0,1-.24.175l-5.12.368a1.7,1.7,0,0,0-1.51,1.16,1.676,1.676,0,0,0,.51,1.853l3.96,3.27a0.277,0.277,0,0,1,.09.283l-1.2,4.939a1.649,1.649,0,0,0,.27,1.459,1.705,1.705,0,0,0,1.35.672,1.622,1.622,0,0,0,.9-0.274l4.32-2.692a0.289,0.289,0,0,1,.3,0l4.37,2.684a1.623,1.623,0,0,0,.91.282,1.691,1.691,0,0,0,1.3-.634,1.73,1.73,0,0,0,.33-1.48l-1.21-4.952a0.281,0.281,0,0,1,.09-0.287l4.02-3.278A1.72,1.72,0,0,0,5736.56,134.356Zm0.33,2.2-4.01,3.274a1.35,1.35,0,0,0-.45,1.348l1.21,4.944a0.649,0.649,0,0,1-.13.586,0.63,0.63,0,0,1-.47.244,0.6,0.6,0,0,1-.35-0.116l-4.38-2.7a1.331,1.331,0,0,0-.7-0.2,1.3,1.3,0,0,0-.7.2l-4.35,2.7a0.626,0.626,0,0,1-.84-0.154,0.577,0.577,0,0,1-.09-0.561l1.21-4.956a1.339,1.339,0,0,0-.45-1.34l-3.95-3.265a0.659,0.659,0,0,1-.19-0.715,0.634,0.634,0,0,1,.59-0.449l5.12-.369a1.322,1.322,0,0,0,1.13-.822l1.96-4.754a0.663,0.663,0,0,1,1.23,0l1.96,4.754a1.31,1.31,0,0,0,1.13.822l5.13,0.373a0.659,0.659,0,0,1,.58.449A0.673,0.673,0,0,1,5736.89,136.56Z" transform="translate(-5717.16 -128)"/>
</svg>
