<?xml version="1.0" encoding="utf-8"?>
<!-- Generator: Adobe Illustrator 23.0.4, SVG Export Plug-In . SVG Version: 6.00 Build 0)  -->
<svg version="1.1" id="Layer_1" 
	xmlns="http://www.w3.org/2000/svg" 
	xmlns:xlink="http://www.w3.org/1999/xlink" x="0px" y="0px" viewBox="0 0 19 17" style="enable-background:new 0 0 19 17;" xml:space="preserve">
	<style type="text/css">
	.st0{enable-background:new    ;}
	.st1{
	fill:#242A32;
    fill-rule: evenodd;
	}
	</style>
	<g class="st0">
		<path class="st1" d="M2.1,14.9c0.6-0.7,1.1-1.5,1.4-2.3C1.9,11.2,1,9.5,1,7.5c0-2,0.9-3.7,2.6-5.2c1.7-1.4,3.8-2.1,6.3-2.1
		c2.5,0,4.6,0.7,6.3,2.1c1.7,1.4,2.6,3.2,2.6,5.2s-0.9,3.7-2.6,5.2c-1.7,1.4-3.8,2.2-6.3,2.2c-0.8,0-1.8-0.1-2.9-0.3
		c-1.5,0.9-3,1.3-4.5,1.3c-0.2,0-0.4-0.1-0.5-0.3S1.9,15.1,2.1,14.9z M4.6,12c0.2,0.2,0.3,0.4,0.2,0.6c-0.3,0.7-0.6,1.4-1,2
		c0.9-0.2,1.9-0.6,2.9-1.2c0.1-0.1,0.3-0.1,0.4-0.1c1,0.2,1.9,0.3,2.9,0.3c2.2,0,4-0.6,5.5-1.8c1.5-1.2,2.3-2.7,2.3-4.4
		S17,4.3,15.5,3.1c-1.5-1.2-3.4-1.8-5.5-1.8S6,1.9,4.4,3.1C2.9,4.3,2.1,5.8,2.1,7.5C2.1,9.2,3,10.7,4.6,12z"/>
	</g>
</svg>
