<svg xmlns="http://www.w3.org/2000/svg" viewBox="0 0 90 80"><defs><style>.cls-1{fill:#f17922;opacity:0.5;}.cls-2{fill:#2c2c2c;}</style></defs><title>close</title><g id="Layer_2" data-name="Layer 2"><g id="Layer_1-2" data-name="Layer 1"><path class="cls-1" d="M90,10A10,10,0,0,0,80,0H5.12A56.5,56.5,0,0,0,56.5,80,56.2,56.2,0,0,0,90,69Z"/><path class="cls-2" d="M41,36.49l6.19-6.25L41,24a1.1,1.1,0,1,1,1.55-1.55l6.25,6.19L55,22.43A1.1,1.1,0,1,1,56.57,24l-6.19,6.26,6.19,6.25A1.1,1.1,0,1,1,55,38l-6.26-6.19L42.51,38A1.1,1.1,0,1,1,41,36.49Z"/></g></g></svg>