<svg xmlns="http://www.w3.org/2000/svg" viewBox="0 0 120 144.85"><defs><style>.cls-1{fill:#ffffff;}</style></defs><title>2</title><g id="Layer_2" data-name="Layer 2"><g id="Layer_1-2" data-name="Layer 1"><circle class="cls-1" cx="72.15" cy="39" r="11"/><circle class="cls-1" cx="42.65" cy="42" r="8"/><path class="cls-1" d="M103.15,101.66a60,60,0,1,0-85.58.77L60,144.85l43.17-43.17,0,0ZM72.15,26a13,13,0,1,1-13,13A13,13,0,0,1,72.15,26Zm-29.5,6a10,10,0,1,1-10,10A10,10,0,0,1,42.65,32ZM23.84,73.25a1,1,0,0,1-1,.86h-.14A1,1,0,0,1,21.86,73,21.1,21.1,0,0,1,42.65,55a20.88,20.88,0,0,1,7.18,1.26,1,1,0,0,1,.6,1.28,1,1,0,0,1-1.29.6A18.79,18.79,0,0,0,42.65,57,19.1,19.1,0,0,0,23.84,73.25ZM97.15,82a1,1,0,0,1-1-1,24,24,0,0,0-48,0,1,1,0,0,1-2,0,26,26,0,0,1,52,0A1,1,0,0,1,97.15,82Z"/></g></g></svg>