<svg xmlns="http://www.w3.org/2000/svg" viewBox="0 0 120 120"><defs><style>.cls-1{fill:#d6d6d6;}.cls-2{fill:#F17922;}</style></defs><title>2</title><g id="Layer_2" data-name="Layer 2"><g id="Layer_1-2" data-name="Layer 1"><path class="cls-1" d="M72.15,28a11,11,0,1,1-11,11,11,11,0,0,1,11-11m0-2a13,13,0,1,0,13,13,13,13,0,0,0-13-13Z"/><path class="cls-1" d="M42.65,34a8,8,0,1,1-8,8,8,8,0,0,1,8-8m0-2a10,10,0,1,0,10,10,10,10,0,0,0-10-10Z"/><path class="cls-1" d="M23.84,73.25a1,1,0,0,1-1,.86h-.14A1,1,0,0,1,21.86,73,21.1,21.1,0,0,1,42.65,55a20.88,20.88,0,0,1,7.18,1.26,1,1,0,0,1,.6,1.28,1,1,0,0,1-1.29.6A18.79,18.79,0,0,0,42.65,57,19.1,19.1,0,0,0,23.84,73.25Z"/><path class="cls-1" d="M97.15,82a1,1,0,0,1-1-1,24,24,0,0,0-48,0,1,1,0,0,1-2,0,26,26,0,0,1,52,0A1,1,0,0,1,97.15,82Z"/><path class="cls-2" d="M60,2A58,58,0,1,1,2,60,58.07,58.07,0,0,1,60,2m0-2a60,60,0,1,0,60,60A60,60,0,0,0,60,0Z"/></g></g></svg>