<svg xmlns="http://www.w3.org/2000/svg" viewBox="0 0 120 120"><defs><style>.cls-1{fill:#d6d6d6;}.cls-2{fill:#F17922;}</style></defs><title>5</title><g id="Layer_2" data-name="Layer 2"><g id="Layer_1-2" data-name="Layer 1"><path class="cls-1" d="M91,40V53H73a2.72,2.72,0,0,0,0-1.76l0-.09a2.36,2.36,0,0,0,1.71-1.09,2.31,2.31,0,0,0-.2-2.8L68.29,40H91M64.44,40A2.37,2.37,0,0,0,64,41.39v9.78A2.34,2.34,0,0,0,64.86,53H29V40H64.44M91,38H29a2,2,0,0,0-2,2V53a2,2,0,0,0,2,2H91a2,2,0,0,0,2-2V40a2,2,0,0,0-2-2ZM66.37,51.55a.2.2,0,0,1-.11,0,.35.35,0,0,1-.26-.35V41.39a.34.34,0,0,1,.25-.35.35.35,0,0,1,.14,0,.34.34,0,0,1,.27.15l6.22,7.39a.32.32,0,0,1,0,.43.34.34,0,0,1-.31.19h-.08l-2.62-.51,1.14,3.27a.73.73,0,0,1,0,.61.84.84,0,0,1-.47.42.86.86,0,0,1-.27,0,.73.73,0,0,1-.35-.09.84.84,0,0,1-.42-.45l-1.17-3.32-1.66,2.24a.37.37,0,0,1-.31.17Z"/><path class="cls-1" d="M91,67V80H29V67H91m0-2H29a2,2,0,0,0-2,2V80a2,2,0,0,0,2,2H91a2,2,0,0,0,2-2V67a2,2,0,0,0-2-2Z"/><path class="cls-2" d="M60,2A58,58,0,1,1,2,60,58.07,58.07,0,0,1,60,2m0-2a60,60,0,1,0,60,60A60,60,0,0,0,60,0Z"/></g></g></svg>