<svg xmlns="http://www.w3.org/2000/svg" viewBox="0 0 120 144.85"><defs><style>.cls-1{fill:#ffffff;}</style></defs><title>4</title><g id="Layer_2" data-name="Layer 2"><g id="Layer_1-2" data-name="Layer 1"><polygon class="cls-1" points="77 43.59 77 33 38 33 38 84 41 84 41 36 69.41 36 77 43.59"/><polygon class="cls-1" points="70 39.41 70 50 80.59 50 79 48.41 70 39.41"/><path class="cls-1" d="M68,38H43V89H82V52H68ZM50,48H60a1,1,0,0,1,0,2H50a1,1,0,0,1,0-2ZM75,82H50a1,1,0,0,1,0-2H75a1,1,0,0,1,0,2Zm0-8H50a1,1,0,0,1,0-2H75a1,1,0,0,1,0,2Zm0-8H50a1,1,0,0,1,0-2H75a1,1,0,0,1,0,2Zm0-10a1,1,0,0,1,0,2H50a1,1,0,0,1,0-2Z"/><path class="cls-1" d="M103.15,101.66a60,60,0,1,0-85.58.77L60,144.85l43.17-43.17,0,0ZM84,91H41V86H36V31H79V45.59l5,5Z"/></g></g></svg>