<svg xmlns="http://www.w3.org/2000/svg" viewBox="0 0 120 120"><defs><style>.cls-1{fill:#d6d6d6;}.cls-2{fill:#F17922;}</style></defs><title>4</title><g id="Layer_2" data-name="Layer 2"><g id="Layer_1-2" data-name="Layer 1"><path class="cls-2" d="M60,2A58,58,0,1,1,2,60,58.07,58.07,0,0,1,60,2m0-2a60,60,0,1,0,60,60A60,60,0,0,0,60,0Z"/><path class="cls-1" d="M76.48,32H49.33a6.15,6.15,0,0,0-6.14,6.08,6.14,6.14,0,0,0-5.81,6.14V81.86A6.17,6.17,0,0,0,43.51,88H70.67a6.15,6.15,0,0,0,6.14-6.08,6.14,6.14,0,0,0,5.81-6.14V38.19A6.1,6.1,0,0,0,76.48,32ZM45.25,38.08a4.1,4.1,0,0,1,4.08-4H76.48a4.07,4.07,0,0,1,4.08,4.08V75.83h0a4.13,4.13,0,0,1-3.75,4.08V49.6c0-.11,0-.27,0-.38a.18.18,0,0,0,0-.11c-.06,0-.06-.11-.11-.16l-9.4-10.54a.83.83,0,0,0-.27-.16c-.06,0-.06-.06-.11-.06a1.09,1.09,0,0,0-.43-.11ZM43.51,86a4.07,4.07,0,0,1-4.07-4.07V44.22a4.07,4.07,0,0,1,4.07-4.07H65.46V49.6a1,1,0,0,0,1,1H74.8V81.86A4.13,4.13,0,0,1,70.67,86Zm24-37.42V41.78l6,6.79Z"/><path class="cls-1" d="M53.83,48.57H44.76a1,1,0,0,0-1,1,1,1,0,0,0,1,1h9.07a1,1,0,1,0,0-2.06Z"/><path class="cls-1" d="M53.78,75.56h-9a1,1,0,0,0,0,2.07h9.07a1,1,0,0,0,1-1,1.13,1.13,0,0,0-1.09-1Z"/><path class="cls-1" d="M69,55.41H44.76a1,1,0,1,0,0,2.06H69a1,1,0,0,0,1-1,1.07,1.07,0,0,0-1-1Z"/><path class="cls-1" d="M69,60.46H44.76a1,1,0,0,0,0,2.07H69a1,1,0,0,0,1-1,1.07,1.07,0,0,0-1-1Z"/><path class="cls-1" d="M69,65.57H44.76a1,1,0,1,0,0,2.06H69a1,1,0,0,0,0-2.06Z"/><path class="cls-1" d="M69,70.62H44.76a1,1,0,1,0,0,2.06H69a1,1,0,0,0,0-2.06Z"/></g></g></svg>