<svg xmlns="http://www.w3.org/2000/svg" viewBox="0 0 120 120"><defs><style>.cls-1{fill:#d6d6d6;}.cls-2{fill:#F17922;}</style></defs><title>1</title><g id="Layer_2" data-name="Layer 2"><g id="Layer_1-2" data-name="Layer 1"><path class="cls-2" d="M60,2A58,58,0,1,1,2,60,58.07,58.07,0,0,1,60,2m0-2a60,60,0,1,0,60,60A60,60,0,0,0,60,0Z"/><path class="cls-1" d="M61,46H47V60H61ZM59,58H49V48H59Z"/><path class="cls-1" d="M82,46H66a1,1,0,0,0,0,2H82a1,1,0,0,0,0-2Z"/><path class="cls-1" d="M82,52H66a1,1,0,0,0,0,2H82a1,1,0,0,0,0-2Z"/><path class="cls-1" d="M82,58H66a1,1,0,0,0,0,2H82a1,1,0,0,0,0-2Z"/><path class="cls-1" d="M82,64H49a1,1,0,0,0,0,2H82a1,1,0,0,0,0-2Z"/><path class="cls-1" d="M64,70H49a1,1,0,0,0,0,2H64a1,1,0,0,0,0-2Z"/><path class="cls-1" d="M64,76H49a1,1,0,0,0,0,2H64a1,1,0,0,0,0-2Z"/><path class="cls-1" d="M64,82H49a1,1,0,0,0,0,2H64a1,1,0,0,0,0-2Z"/><path class="cls-1" d="M69,84H83V70H69Zm2-12H81V82H71Z"/><path class="cls-1" d="M89,43s0,0,0,0V30H41V60H31V84a6,6,0,0,0,6,6H83a6,6,0,0,0,6-6v-41S89,43,89,43ZM87,32V42H43V32ZM33,84V62h8V84a4,4,0,0,1-8,0Zm50,4H41.47l0-.06a5.75,5.75,0,0,0,.56-.74l.07-.13a5.21,5.21,0,0,0,.43-.85s0-.08,0-.12a6.11,6.11,0,0,0,.28-.95.28.28,0,0,1,0-.09A6.14,6.14,0,0,0,43,84V44H87V84A4,4,0,0,1,83,88Z"/><path class="cls-1" d="M77,34H53v6H77Zm-2,4H55V36H75Z"/></g></g></svg>