<svg xmlns="http://www.w3.org/2000/svg" viewBox="0 0 120 144.85"><defs><style>.cls-1{fill:#ffffff;}</style></defs><title>1</title><g id="Layer_2" data-name="Layer 2"><g id="Layer_1-2" data-name="Layer 1"><rect class="cls-1" x="55" y="34" width="20" height="2"/><rect class="cls-1" x="49" y="46" width="10" height="10"/><path class="cls-1" d="M43,58V82a6.14,6.14,0,0,1-.1,1.06.28.28,0,0,0,0,.09,6.11,6.11,0,0,1-.28.95s0,.08,0,.12a6.11,6.11,0,0,1-.42.85l-.08.13a5.75,5.75,0,0,1-.56.74l0,.06H83a4,4,0,0,0,4-4V42H43ZM64,82H49a1,1,0,0,1,0-2H64a1,1,0,0,1,0,2Zm0-6H49a1,1,0,0,1,0-2H64a1,1,0,0,1,0,2Zm0-6H49a1,1,0,0,1,0-2H64a1,1,0,0,1,0,2ZM83,82H69V68H83ZM82,64H49a1,1,0,0,1,0-2H82a1,1,0,0,1,0,2ZM66,44H82a1,1,0,0,1,0,2H66a1,1,0,0,1,0-2Zm0,6H82a1,1,0,0,1,0,2H66a1,1,0,0,1,0-2Zm0,6H82a1,1,0,0,1,0,2H66a1,1,0,0,1,0-2ZM47,44H61V58H47Z"/><rect class="cls-1" x="71" y="70" width="10" height="10"/><path class="cls-1" d="M103.15,101.66a60,60,0,1,0-85.58.77L60,144.85l43.17-43.17,0,0ZM89,41.05V82a6,6,0,0,1-6,6H37a6,6,0,0,1-6-6V58H41V28H89V41s0,0,0,0S89,41,89,41.05Z"/><path class="cls-1" d="M33,82a4,4,0,0,0,8,0V60H33Z"/><path class="cls-1" d="M43,40H87V30H43Zm10-8H77v6H53Z"/></g></g></svg>