<svg xmlns="http://www.w3.org/2000/svg" viewBox="0 0 120 144.85"><defs><style>.cls-1{fill:#ffffff;}</style></defs><title>5</title><g id="Layer_2" data-name="Layer 2"><g id="Layer_1-2" data-name="Layer 1"><path class="cls-1" d="M91,37H29a2,2,0,0,0-2,2V52a2,2,0,0,0,2,2H91a2,2,0,0,0,2-2V39A2,2,0,0,0,91,37ZM72.92,48a.35.35,0,0,1-.39.18l-2.62-.51,1.14,3.27a.73.73,0,0,1,0,.61.84.84,0,0,1-.47.42.71.71,0,0,1-.62,0,.84.84,0,0,1-.42-.45l-1.17-3.32-1.66,2.24a.37.37,0,0,1-.31.17.2.2,0,0,1-.11,0,.35.35,0,0,1-.26-.35V40.39a.34.34,0,0,1,.25-.35.33.33,0,0,1,.41.12l6.22,7.39A.32.32,0,0,1,72.92,48Z"/><path class="cls-1" d="M66.75,49l1.64-2.23a.35.35,0,0,1,.37-.14l2.88.56-4.89-5.8Z"/><rect class="cls-1" x="27" y="64" width="66" height="17" rx="2"/><path class="cls-1" d="M103.15,101.66a60,60,0,1,0-85.58.77L60,144.85l43.17-43.17,0,0ZM95,79a4,4,0,0,1-4,4H29a4,4,0,0,1-4-4V66a4,4,0,0,1,4-4H91a4,4,0,0,1,4,4Zm0-27a4,4,0,0,1-4,4H29a4,4,0,0,1-4-4V39a4,4,0,0,1,4-4H91a4,4,0,0,1,4,4Z"/></g></g></svg>