<svg xmlns="http://www.w3.org/2000/svg" viewBox="0 0 120 144.85"><defs><style>.cls-1{fill:#ffffff;}</style></defs><title>3</title><g id="Layer_2" data-name="Layer 2"><g id="Layer_1-2" data-name="Layer 1"><path class="cls-1" d="M103.15,101.66a60,60,0,1,0-85.58.77L60,144.85l43.17-43.17,0,0ZM62,74.71l-8.81,8.81A13.59,13.59,0,0,1,34,64.3L46.79,51.48a13.6,13.6,0,0,1,19.22,0,1.15,1.15,0,0,1,0,1.61,1.13,1.13,0,0,1-1.6,0,11.33,11.33,0,0,0-16,0L35.57,65.9a11.31,11.31,0,0,0,8,19.32,11.24,11.24,0,0,0,8-3.3l8.81-8.81a1.13,1.13,0,1,1,1.6,1.6Zm24-24L72.41,64.3a13.62,13.62,0,0,1-19.22,0,1.13,1.13,0,1,1,1.6-1.6,11.35,11.35,0,0,0,16,0L84.43,49.08a11.33,11.33,0,0,0-16-16L58,43.48a1.13,1.13,0,0,1-1.6-1.61L66.81,31.46A13.59,13.59,0,0,1,86,50.68Z"/></g></g></svg>